<svg width="41" height="29" viewBox="0 0 41 29" fill="none" xmlns="http://www.w3.org/2000/svg">
<path d="M40.1514 5.61698C39.8916 5.25408 39.543 5.07263 39.1055 5.07263H11.2559L10.5 3.10484C10.3086 2.45968 10.0488 1.9086 9.7207 1.45161C9.39258 0.994624 9.04395 0.672043 8.6748 0.483871C8.30566 0.295699 7.98438 0.168011 7.71094 0.100806C7.4375 0.0336021 7.16406 0 6.89062 0H1.27148C0.916016 0 0.615234 0.120968 0.369141 0.362903C0.123047 0.604839 0 0.913978 0 1.29032C0 1.50538 0.0546875 1.71371 0.164062 1.91532C0.273438 2.11694 0.430664 2.27151 0.635742 2.37903C0.84082 2.48656 1.05273 2.54032 1.27148 2.54032H6.89062C7 2.54032 7.10254 2.55376 7.19824 2.58065C7.29395 2.60753 7.42383 2.72177 7.58789 2.92339C7.75195 3.125 7.88867 3.42742 7.99805 3.83065L13.8809 19.9839C13.9355 20.1452 14.0244 20.2997 14.1475 20.4476C14.2705 20.5954 14.4141 20.7097 14.5781 20.7903C14.7422 20.871 14.9199 20.9113 15.1113 20.9113H32.8301C33.1035 20.9113 33.3564 20.8306 33.5889 20.6694C33.8213 20.5081 33.9785 20.3064 34.0605 20.0645L40.3359 6.8065C40.4727 6.37639 40.4111 5.97989 40.1514 5.61698ZM31.9277 18.3306H16.1367L11.9531 7.65327H37.2188L31.9277 18.3306ZM29.5625 22.3106C28.6602 22.3106 27.8877 22.6265 27.2451 23.2582C26.6025 23.89 26.2812 24.6494 26.2812 25.5365C26.2812 26.4236 26.6025 27.183 27.2451 27.8147C27.8877 28.4464 28.6602 28.7623 29.5625 28.7623C30.4648 28.7623 31.2373 28.4464 31.8799 27.8147C32.5225 27.183 32.8438 26.4236 32.8438 25.5365C32.8438 24.6494 32.5225 23.89 31.8799 23.2582C31.2373 22.6265 30.4648 22.3106 29.5625 22.3106ZM17.75 22.3106C17.1484 22.3106 16.5947 22.4585 16.0889 22.7542C15.583 23.0499 15.1865 23.4397 14.8994 23.9236C14.6123 24.4074 14.4688 24.9451 14.4688 25.5365C14.4688 26.4236 14.79 27.183 15.4326 27.8147C16.0752 28.4464 16.8477 28.7623 17.75 28.7623C18.6523 28.7623 19.4248 28.4464 20.0674 27.8147C20.71 27.183 21.0312 26.4236 21.0312 25.5365C21.0312 25.3214 21.0107 25.1064 20.9697 24.8913C20.9287 24.6763 20.8672 24.4746 20.7852 24.2865C20.7031 24.0983 20.6006 23.9168 20.4775 23.7421C20.3545 23.5674 20.2178 23.4061 20.0674 23.2582C19.917 23.1104 19.7529 22.976 19.5752 22.855C19.3975 22.734 19.2129 22.6332 19.0215 22.5526C18.8301 22.4719 18.625 22.4115 18.4062 22.3711C18.1875 22.3308 17.9688 22.3106 17.75 22.3106Z" fill="#3F4E65"/>
</svg>
